<svg width="14" height="14" viewBox="0 0 14 14" fill="none" xmlns="http://www.w3.org/2000/svg">
<path opacity="0.4" fill-rule="evenodd" clip-rule="evenodd" d="M4.3932 2.83301C4.3932 2.55687 4.61706 2.33301 4.8932 2.33301H8.94875C9.2249 2.33301 9.44875 2.55686 9.44875 2.83301V3.77775C9.44875 4.05389 9.67261 4.27775 9.94875 4.27775H11.0043H11.4763C11.7525 4.27775 11.9763 4.50161 11.9763 4.77775V4.95838C11.9763 5.22681 11.7587 5.44442 11.4903 5.44442C11.2219 5.44442 11.0043 5.66202 11.0043 5.93045V12.3333C11.0043 12.6094 10.7804 12.8333 10.5043 12.8333H3.33761C3.06146 12.8333 2.83761 12.6094 2.83761 12.3333V5.9306C2.83761 5.66209 2.61993 5.44442 2.35142 5.44442C2.08291 5.44442 1.86523 5.22674 1.86523 4.95823V4.77775C1.86523 4.50161 2.08909 4.27775 2.36523 4.27775H2.83761H3.8932C4.16934 4.27775 4.3932 4.05389 4.3932 3.77775V2.83301ZM4.50427 5.44442C4.22813 5.44442 4.00427 5.66827 4.00427 5.94442V11.1666C4.00427 11.4428 4.22813 11.6666 4.50427 11.6666H9.33761C9.61375 11.6666 9.83761 11.4428 9.83761 11.1666V5.94442C9.83761 5.66827 9.61375 5.44442 9.33761 5.44442H4.50427ZM5.94876 3.49967C5.73398 3.49967 5.55987 3.67379 5.55987 3.88856C5.55987 4.10334 5.73398 4.27745 5.94876 4.27745H7.8932C8.10798 4.27745 8.28209 4.10334 8.28209 3.88856C8.28209 3.67379 8.10798 3.49967 7.8932 3.49967H5.94876ZM5.67117 6.80554C5.39502 6.80554 5.17117 7.0294 5.17117 7.30554V9.80554C5.17117 10.0817 5.39502 10.3055 5.67117 10.3055H5.83783C6.11397 10.3055 6.33783 10.0817 6.33783 9.80554V7.30554C6.33783 7.0294 6.11397 6.80554 5.83783 6.80554H5.67117ZM8.00405 10.3055C7.72791 10.3055 7.50405 10.0817 7.50405 9.80554V7.30554C7.50405 7.0294 7.72791 6.80554 8.00405 6.80554H8.17072C8.44686 6.80554 8.67072 7.0294 8.67072 7.30554V9.80554C8.67072 10.0817 8.44686 10.3055 8.17072 10.3055H8.00405Z" fill="black"/>
<path fill-rule="evenodd" clip-rule="evenodd" d="M4.3932 2.36719C4.3932 2.09105 4.61706 1.86719 4.8932 1.86719H8.94875C9.2249 1.86719 9.44875 2.09104 9.44875 2.36719V3.31193C9.44875 3.58807 9.67261 3.81193 9.94875 3.81193H11.0043H11.4763C11.7525 3.81193 11.9763 4.03579 11.9763 4.31193V4.49256C11.9763 4.76099 11.7587 4.9786 11.4903 4.9786C11.2219 4.9786 11.0043 5.1962 11.0043 5.46463V11.8675C11.0043 12.1436 10.7804 12.3675 10.5043 12.3675H3.33761C3.06146 12.3675 2.83761 12.1436 2.83761 11.8675V5.46478C2.83761 5.19627 2.61993 4.9786 2.35142 4.9786C2.08291 4.9786 1.86523 4.76092 1.86523 4.49241V4.31193C1.86523 4.03579 2.08909 3.81193 2.36523 3.81193H2.83761H3.8932C4.16934 3.81193 4.3932 3.58807 4.3932 3.31193V2.36719ZM4.50427 4.9786C4.22813 4.9786 4.00427 5.20245 4.00427 5.4786V10.7008C4.00427 10.977 4.22813 11.2008 4.50427 11.2008H9.33761C9.61375 11.2008 9.83761 10.977 9.83761 10.7008V5.4786C9.83761 5.20246 9.61375 4.9786 9.33761 4.9786H4.50427ZM5.94876 3.03385C5.73398 3.03385 5.55987 3.20797 5.55987 3.42274C5.55987 3.63752 5.73398 3.81163 5.94876 3.81163H7.8932C8.10798 3.81163 8.28209 3.63752 8.28209 3.42274C8.28209 3.20797 8.10798 3.03385 7.8932 3.03385H5.94876ZM5.67049 6.33972C5.39435 6.33972 5.17049 6.56358 5.17049 6.83972V9.33972C5.17049 9.61586 5.39435 9.83972 5.67049 9.83972H5.83716C6.1133 9.83972 6.33716 9.61586 6.33716 9.33972V6.83972C6.33716 6.56358 6.1133 6.33972 5.83716 6.33972H5.67049ZM8.00405 9.83972C7.72791 9.83972 7.50405 9.61586 7.50405 9.33972V6.83972C7.50405 6.56358 7.72791 6.33972 8.00405 6.33972H8.17072C8.44686 6.33972 8.67072 6.56358 8.67072 6.83972V9.33972C8.67072 9.61586 8.44686 9.83972 8.17072 9.83972H8.00405Z" fill="url(#paint0_linear_4328_2121)"/>
<defs>
<linearGradient id="paint0_linear_4328_2121" x1="6.97078" y1="-3.7552" x2="6.06478" y2="27.4725" gradientUnits="userSpaceOnUse">
<stop stop-color="white"/>
<stop offset="1" stop-color="#C4C4C4" stop-opacity="0"/>
</linearGradient>
</defs>
</svg>
