<svg width="14" height="14" viewBox="0 0 14 14" fill="none" xmlns="http://www.w3.org/2000/svg">
<mask id="mask0_2446_368410" style="mask-type:alpha" maskUnits="userSpaceOnUse" x="0" y="0" width="14" height="14">
<rect width="14" height="14" fill="#C4C4C4"/>
</mask>
<g mask="url(#mask0_2446_368410)">
<path opacity="0.4" fill-rule="evenodd" clip-rule="evenodd" d="M8.76276 2.90116L12.5581 6.69645C12.7527 6.89112 12.7534 7.20653 12.5596 7.40203L9.17637 10.8145C8.86348 11.1301 9.08703 11.6665 9.53145 11.6665L11.6335 11.6665C11.9096 11.6665 12.1335 11.8904 12.1335 12.1665L12.1335 12.3332C12.1335 12.6093 11.9096 12.8332 11.6335 12.8332L7.17505 12.8332C7.17502 12.8332 7.17499 12.8332 7.17496 12.8332C7.17494 12.8333 7.17491 12.8333 7.17488 12.8333L4.43849 12.8333C4.30715 12.8333 4.18107 12.7816 4.08752 12.6894L1.05671 9.70242C0.859017 9.50759 0.857857 9.18902 1.05413 8.99275L7.92604 2.12084C7.94161 2.10526 7.96686 2.10526 7.98243 2.12084L8.00559 2.14399C8.00826 2.14666 8.01257 2.14668 8.01526 2.14403C8.01797 2.14136 8.02234 2.14141 8.02499 2.14413L8.76276 2.90116ZM5.04225 7.36165C4.84699 7.16638 4.53041 7.16638 4.33514 7.36165L2.71007 8.98672C2.51381 9.18298 2.51497 9.50155 2.71266 9.69639L4.56573 11.5226C4.65928 11.6148 4.78535 11.6665 4.9167 11.6665H6.48043C6.61379 11.6665 6.74162 11.6133 6.8355 11.5186L7.66173 10.6852C7.85556 10.4897 7.85488 10.1743 7.66021 9.9796L5.04225 7.36165Z" fill="black"/>
<path fill-rule="evenodd" clip-rule="evenodd" d="M8.78022 2.53041L12.5578 6.30801C12.7525 6.50268 12.7532 6.81809 12.5593 7.01359L9.17611 10.4261C8.86322 10.7417 9.08677 11.2781 9.53118 11.2781H11.6334C11.9095 11.2781 12.1334 11.502 12.1334 11.7781V11.9448C12.1334 12.2209 11.9095 12.4448 11.6334 12.4448L7.17476 12.4448C7.17474 12.4448 7.17473 12.4448 7.17472 12.4448C7.1747 12.4448 7.17469 12.4448 7.17467 12.4448H4.43826C4.30692 12.4448 4.18084 12.3931 4.08729 12.3009L1.05648 9.31398C0.858787 9.11915 0.857628 8.80057 1.0539 8.60431L7.92593 1.73228C7.94143 1.71677 7.96658 1.71677 7.98209 1.73228L8.00501 1.7552C8.00774 1.75793 8.01216 1.75795 8.01491 1.75524C8.01769 1.75251 8.02216 1.75256 8.02488 1.75535L8.78022 2.53041ZM5.04225 6.97297C4.84699 6.77771 4.53041 6.77771 4.33515 6.97297L2.70985 8.59827C2.51358 8.79454 2.51474 9.11311 2.71243 9.30795L4.56554 11.1342C4.65909 11.2264 4.78516 11.2781 4.9165 11.2781H6.48017C6.61352 11.2781 6.74135 11.2249 6.83524 11.1302L7.66173 10.2965C7.85556 10.101 7.85488 9.7856 7.66021 9.59093L5.04225 6.97297Z" fill="url(#paint0_linear_2446_368410)"/>
</g>
<defs>
<linearGradient id="paint0_linear_2446_368410" x1="15.5461" y1="1.498" x2="-6.65649" y2="22.5017" gradientUnits="userSpaceOnUse">
<stop stop-color="white"/>
<stop offset="1" stop-color="#C4C4C4" stop-opacity="0"/>
</linearGradient>
</defs>
</svg>
