<svg width="14" height="14" viewBox="0 0 14 14" fill="none" xmlns="http://www.w3.org/2000/svg">
<path fill-rule="evenodd" clip-rule="evenodd" d="M2.48538 7.10051C2.48542 7.10041 2.48547 7.10031 2.48551 7.10021C2.48292 7.10788 2.48198 7.10843 2.48538 7.10051ZM2.54358 6.99902C2.5943 6.92085 2.67092 6.81752 2.77452 6.69516C3.0049 6.42306 3.34589 6.08376 3.77127 5.75321C4.63014 5.08579 5.77373 4.49902 7 4.49902C8.22627 4.49902 9.36986 5.08579 10.2287 5.75321C10.6541 6.08376 10.9951 6.42306 11.2255 6.69516C11.3291 6.81752 11.4057 6.92085 11.4564 6.99902C11.4057 7.0772 11.3291 7.18053 11.2255 7.30289C10.9951 7.57498 10.6541 7.91429 10.2287 8.24484C9.36986 8.91226 8.22627 9.49902 7 9.49902C5.77373 9.49902 4.63014 8.91226 3.77127 8.24484C3.34589 7.91429 3.0049 7.57498 2.77452 7.30289C2.67092 7.18053 2.5943 7.0772 2.54358 6.99902ZM11.5146 7.10051C11.518 7.10843 11.5171 7.10788 11.5145 7.10021C11.5145 7.10031 11.5146 7.10041 11.5146 7.10051ZM11.5145 6.89784C11.5171 6.89017 11.518 6.88962 11.5146 6.89753C11.5146 6.89764 11.5145 6.89774 11.5145 6.89784ZM2.48551 6.89784C2.48547 6.89774 2.48542 6.89764 2.48538 6.89753C2.48198 6.88962 2.48292 6.89017 2.48551 6.89784ZM3.15767 4.96359C4.10844 4.22476 5.46485 3.49902 7 3.49902C8.53515 3.49902 9.89156 4.22476 10.8423 4.96359C11.3218 5.33616 11.713 5.72342 11.9887 6.04898C12.1259 6.21109 12.2403 6.36473 12.3236 6.49941C12.365 6.56629 12.4037 6.63655 12.4338 6.70656C12.4584 6.76418 12.5 6.87216 12.5 6.99902C12.5 7.12588 12.4584 7.23387 12.4338 7.29149C12.4037 7.36149 12.365 7.43175 12.3236 7.49864C12.2403 7.63332 12.1259 7.78696 11.9887 7.94907C11.713 8.27463 11.3218 8.66189 10.8423 9.03446C9.89156 9.77329 8.53515 10.499 7 10.499C5.46485 10.499 4.10844 9.77329 3.15767 9.03446C2.67822 8.66189 2.28698 8.27463 2.01133 7.94907C1.87407 7.78696 1.75968 7.63332 1.67637 7.49864C1.63499 7.43175 1.59625 7.36149 1.56625 7.29149C1.54155 7.23387 1.5 7.12588 1.5 6.99902C1.5 6.87216 1.54155 6.76418 1.56625 6.70656C1.59625 6.63655 1.63499 6.56629 1.67637 6.49941C1.75968 6.36473 1.87407 6.21109 2.01133 6.04898C2.28698 5.72342 2.67822 5.33616 3.15767 4.96359Z" fill="white" fill-opacity="0.68"/>
<path fill-rule="evenodd" clip-rule="evenodd" d="M6.99935 6.16602C6.53911 6.16602 6.16602 6.53911 6.16602 6.99935C6.16602 7.45959 6.53911 7.83268 6.99935 7.83268C7.45959 7.83268 7.83268 7.45959 7.83268 6.99935C7.83268 6.53911 7.45959 6.16602 6.99935 6.16602ZM5.16602 6.99935C5.16602 5.98683 5.98683 5.16602 6.99935 5.16602C8.01187 5.16602 8.83268 5.98683 8.83268 6.99935C8.83268 8.01187 8.01187 8.83268 6.99935 8.83268C5.98683 8.83268 5.16602 8.01187 5.16602 6.99935Z" fill="white" fill-opacity="0.68"/>
</svg>
