<svg width="170" height="42" viewBox="0 0 170 42" fill="none" xmlns="http://www.w3.org/2000/svg">
<mask id="path-1-inside-1_4261_1841" fill="white">
<path fill-rule="evenodd" clip-rule="evenodd" d="M21 21L0 42L170 42V0H0L21 21Z"/>
</mask>
<path fill-rule="evenodd" clip-rule="evenodd" d="M21 21L0 42L170 42V0H0L21 21Z" fill="#242527"/>
<path d="M0 42L-0.707107 41.2929L-2.41421 43H2.24394e-08L0 42ZM21 21L21.7071 21.7071L22.4142 21L21.7071 20.2929L21 21ZM170 42V43H171V42H170ZM170 0H171V-1H170V0ZM0 0V-1H-2.41421L-0.707107 0.707107L0 0ZM0.707107 42.7071L21.7071 21.7071L20.2929 20.2929L-0.707107 41.2929L0.707107 42.7071ZM170 41L-2.24394e-08 41L2.24394e-08 43L170 43V41ZM169 0V42H171V0H169ZM0 1H170V-1H0V1ZM21.7071 20.2929L0.707107 -0.707107L-0.707107 0.707107L20.2929 21.7071L21.7071 20.2929Z" fill="#171617" mask="url(#path-1-inside-1_4261_1841)"/>
<path fill-rule="evenodd" clip-rule="evenodd" d="M169 1H2.5L0 0H170L169 1Z" fill="#3D3A3C"/>
</svg>
