<svg width="170" height="42" viewBox="0 0 170 42" fill="none" xmlns="http://www.w3.org/2000/svg">
<mask id="path-1-inside-1_6454_8222" fill="white">
<path fill-rule="evenodd" clip-rule="evenodd" d="M0 42L149 42L170 21L149 0H0L21 21L0 42Z"/>
</mask>
<path fill-rule="evenodd" clip-rule="evenodd" d="M0 42L149 42L170 21L149 0H0L21 21L0 42Z" fill="#969696"/>
<path d="M0 42L-0.707107 41.2929L-2.41421 43H2.5602e-08L0 42ZM149 42V43H149.414L149.707 42.7071L149 42ZM170 21L170.707 21.7071L171.414 21L170.707 20.2929L170 21ZM149 0L149.707 -0.707107L149.414 -1H149V0ZM0 0V-1H-2.41421L-0.707107 0.707107L0 0ZM21 21L21.7071 21.7071L22.4142 21L21.7071 20.2929L21 21ZM2.5602e-08 43L149 43V41L-2.5602e-08 41L2.5602e-08 43ZM149.707 42.7071L170.707 21.7071L169.293 20.2929L148.293 41.2929L149.707 42.7071ZM170.707 20.2929L149.707 -0.707107L148.293 0.707107L169.293 21.7071L170.707 20.2929ZM149 -1H0V1H149V-1ZM21.7071 20.2929L0.707107 -0.707107L-0.707107 0.707107L20.2929 21.7071L21.7071 20.2929ZM0.707107 42.7071L21.7071 21.7071L20.2929 20.2929L-0.707107 41.2929L0.707107 42.7071Z" fill="#464246" mask="url(#path-1-inside-1_6454_8222)"/>
<path fill-rule="evenodd" clip-rule="evenodd" d="M148.594 1H2.41016L0 0H149L148.594 1Z" fill="#DFDFDF"/>
</svg>
