<svg width="28" height="26" viewBox="0 0 28 26" fill="none" xmlns="http://www.w3.org/2000/svg">
<path opacity="0.4" fill-rule="evenodd" clip-rule="evenodd" d="M9.50611 7.4497C9.67962 7.23488 9.99442 7.20139 10.2092 7.3749L10.9831 7.99994C11.1979 8.17345 11.2314 8.48825 11.0579 8.70308L9.17877 11.0296C9.00526 11.2445 9.03875 11.5593 9.25357 11.7328L10.0279 12.3582C10.2427 12.5317 10.5575 12.4982 10.731 12.2834L12.6102 9.95684C12.7837 9.74202 13.0985 9.70852 13.3133 9.88203L14.0876 10.5074C14.3024 10.6809 14.3359 10.9957 14.1624 11.2105L13.5366 11.9852C13.3631 12.2 13.3966 12.5149 13.6114 12.6884L14.3858 13.3138C14.6006 13.4873 14.9154 13.4538 15.0889 13.239L15.7146 12.4643C15.8882 12.2495 16.203 12.216 16.4178 12.3895L17.1942 13.0166C17.409 13.1901 17.4425 13.5049 17.269 13.7197L15.3898 16.0464C15.2162 16.2613 15.2497 16.5761 15.4646 16.7496L16.2389 17.375C16.4537 17.5485 16.7685 17.515 16.942 17.3002L18.8213 14.9735C18.9948 14.7587 19.3096 14.7252 19.5244 14.8987L20.2975 15.5231C20.5123 15.6966 20.5458 16.0114 20.3723 16.2262L19.7465 17.0009C19.573 17.2158 19.6065 17.5306 19.8213 17.7041L20.5957 18.3295C20.8105 18.503 21.1253 18.4695 21.2988 18.2547L21.9246 17.48C22.0981 17.2651 22.4129 17.2316 22.6277 17.4052L24.1775 18.6569C24.3923 18.8304 24.4258 19.1452 24.2523 19.3601L21.7463 22.4628C21.5727 22.6776 21.2579 22.7111 21.0431 22.5376L3.19369 8.12082C2.97886 7.94731 2.94537 7.6325 3.11888 7.41768L5.62495 4.31493C5.79846 4.1001 6.11326 4.06661 6.32808 4.24012L7.87902 5.4928C8.09384 5.66631 8.12733 5.98111 7.95382 6.19594L7.32812 6.97062C7.15461 7.18544 7.1881 7.50025 7.40292 7.67376L8.17726 8.29918C8.39209 8.4727 8.70689 8.4392 8.8804 8.22438L9.50611 7.4497ZM26.9836 18.3584L13.7948 7.70602L13.7892 7.70138L13.0148 7.07595L13.0091 7.0714L6.02956 1.43408C5.81474 1.26057 5.49993 1.29406 5.32642 1.50888L0.312842 7.7162C0.139332 7.93102 0.172821 8.24582 0.387644 8.41933L21.3416 25.3437C21.5565 25.5172 21.8713 25.4837 22.0448 25.2689L27.0584 19.0616C27.2319 18.8467 27.1984 18.5319 26.9836 18.3584Z" fill="black"/>
<path fill-rule="evenodd" clip-rule="evenodd" d="M10.1324 6.6737C10.3059 6.45887 10.6207 6.42538 10.8356 6.59889L11.6094 7.22393C11.8242 7.39744 11.8577 7.71225 11.6842 7.92707L9.80537 10.2533C9.63186 10.4681 9.66535 10.7829 9.88018 10.9564L10.6545 11.5818C10.8693 11.7554 11.1841 11.7219 11.3577 11.507L13.2365 9.18084C13.41 8.96601 13.7248 8.93252 13.9396 9.10603L14.7139 9.73137C14.9287 9.90488 14.9622 10.2197 14.7887 10.4345L14.1633 11.2088C13.9898 11.4237 14.0232 11.7385 14.2381 11.912L15.0124 12.5374C15.2272 12.7109 15.542 12.6774 15.7156 12.4626L16.341 11.6883C16.5145 11.4735 16.8293 11.44 17.0441 11.6135L17.8205 12.2406C18.0354 12.4141 18.0688 12.7289 17.8953 12.9437L16.0164 15.2701C15.8429 15.4849 15.8763 15.7997 16.0912 15.9732L16.8655 16.5986C17.0803 16.7722 17.3951 16.7387 17.5686 16.5238L19.4476 14.1975C19.6211 13.9827 19.9359 13.9492 20.1508 14.1227L20.9238 14.7471C21.1386 14.9206 21.1721 15.2354 20.9986 15.4502L20.3732 16.2245C20.1997 16.4394 20.2331 16.7542 20.448 16.9277L21.2223 17.5531C21.4371 17.7266 21.7519 17.6931 21.9254 17.4783L22.5509 16.704C22.7244 16.4891 23.0392 16.4556 23.254 16.6292L24.8042 17.8812C25.019 18.0547 25.0525 18.3695 24.879 18.5843L22.3729 21.6871C22.1994 21.9019 21.8846 21.9354 21.6698 21.7619L3.82032 7.34509C3.60549 7.17158 3.572 6.85678 3.74551 6.64196L6.25159 3.53919C6.4251 3.32436 6.73991 3.29087 6.95473 3.46438L8.50534 4.71679C8.72016 4.89031 8.75365 5.20511 8.58014 5.41993L7.95475 6.19423C7.78124 6.40906 7.81473 6.72386 8.02955 6.89737L8.80389 7.5228C9.01871 7.69631 9.33352 7.66282 9.50703 7.448L10.1324 6.6737ZM20.6412 11.9539L27.6102 17.5827C27.825 17.7562 27.8585 18.071 27.685 18.2858L22.6714 24.4931C22.4979 24.708 22.1831 24.7415 21.9683 24.5679L1.01427 7.64362C0.799448 7.47011 0.765958 7.1553 0.939468 6.94048L5.95307 0.733139C6.12658 0.518316 6.44139 0.484826 6.65621 0.658336L10.5318 3.78865L10.5371 3.79281L11.3114 4.41824L11.3166 4.42247L13.6229 6.28528C13.6292 6.28988 13.6354 6.29464 13.6415 6.29957L14.4158 6.92499C14.4219 6.92992 14.4279 6.93496 14.4337 6.94012L16.7435 8.80572L16.7456 8.80742L17.5199 9.43285L17.522 9.43456L19.8376 11.3048C19.8426 11.3086 19.8476 11.3124 19.8525 11.3164L20.6268 11.9418C20.6317 11.9457 20.6365 11.9498 20.6412 11.9539Z" fill="url(#paint0_linear_4328_5364)"/>
<defs>
<linearGradient id="paint0_linear_4328_5364" x1="20.1481" y1="5.60752" x2="3.81605" y2="25.4746" gradientUnits="userSpaceOnUse">
<stop stop-color="#23E5C5"/>
<stop offset="1" stop-color="#259885"/>
</linearGradient>
</defs>
</svg>
