<svg width="32" height="32" viewBox="0 0 32 32" fill="none" xmlns="http://www.w3.org/2000/svg">
<path opacity="0.4" d="M27.04 5H4.96C4.429 5 4 5.429 4 5.96V28.04C4 28.571 4.429 29 4.96 29H27.04C27.571 29 28 28.571 28 28.04V5.96C28 5.429 27.571 5 27.04 5ZM13.846 24.59H12.322C12.256 24.59 12.187 24.557 12.145 24.503L11.4674 23.6727C11.2673 23.4275 10.8927 23.4275 10.6926 23.6727L10.015 24.503C9.99423 24.5302 9.96743 24.5522 9.93672 24.5673C9.90601 24.5824 9.87222 24.5902 9.838 24.59H8.314C8.116 24.59 8.008 24.353 8.14 24.197L9.76274 22.2093C9.91303 22.0252 9.91298 21.7608 9.76261 21.5768L8.185 19.646C8.056 19.49 8.164 19.253 8.362 19.253H9.889C9.955 19.253 10.024 19.286 10.066 19.34L10.6989 20.1143C10.8989 20.3591 11.2731 20.3591 11.4731 20.1143L12.106 19.34C12.151 19.283 12.214 19.253 12.283 19.253H13.807C14.005 19.253 14.113 19.49 13.984 19.646L12.4042 21.5737C12.2534 21.7577 12.2532 22.0225 12.4036 22.2068L14.026 24.194C14.152 24.353 14.044 24.59 13.846 24.59ZM14.08 13.13C14.08 13.196 14.038 13.25 13.984 13.25H12.42C12.1439 13.25 11.92 13.4739 11.92 13.75V15.311C11.92 15.368 11.866 15.41 11.8 15.41H10.36C10.294 15.41 10.24 15.368 10.24 15.314V13.75C10.24 13.4739 10.0161 13.25 9.74 13.25H8.176C8.122 13.25 8.08 13.196 8.08 13.13V11.69C8.08 11.624 8.122 11.57 8.176 11.57H9.74C10.0161 11.57 10.24 11.3461 10.24 11.07V9.506C10.24 9.452 10.294 9.41 10.36 9.41H11.8C11.866 9.41 11.92 9.452 11.92 9.506V11.07C11.92 11.3461 12.1439 11.57 12.42 11.57H13.981C14.038 11.57 14.08 11.624 14.08 11.69V13.13ZM23.92 24.2C23.92 24.266 23.878 24.32 23.824 24.32H18.016C17.962 24.32 17.92 24.266 17.92 24.2V22.76C17.92 22.694 17.962 22.64 18.016 22.64H23.821C23.878 22.64 23.92 22.694 23.92 22.76V24.2ZM23.92 21.08C23.92 21.146 23.878 21.2 23.824 21.2H18.016C17.962 21.2 17.92 21.146 17.92 21.08V19.64C17.92 19.574 17.962 19.52 18.016 19.52H23.821C23.878 19.52 23.92 19.574 23.92 19.64V21.08ZM23.92 13.13C23.92 13.196 23.878 13.25 23.824 13.25H18.016C17.962 13.25 17.92 13.196 17.92 13.13V11.69C17.92 11.624 17.962 11.57 18.016 11.57H23.821C23.878 11.57 23.92 11.624 23.92 11.69V13.13Z" fill="black"/>
<path d="M27.04 4H4.96C4.429 4 4 4.429 4 4.96V27.04C4 27.571 4.429 28 4.96 28H27.04C27.571 28 28 27.571 28 27.04V4.96C28 4.429 27.571 4 27.04 4ZM13.846 23.59H12.322C12.256 23.59 12.187 23.557 12.145 23.503L11.4674 22.6727C11.2673 22.4275 10.8927 22.4275 10.6926 22.6727L10.015 23.503C9.99423 23.5302 9.96743 23.5522 9.93672 23.5673C9.90601 23.5824 9.87222 23.5902 9.838 23.59H8.314C8.116 23.59 8.008 23.353 8.14 23.197L9.76274 21.2093C9.91303 21.0252 9.91298 20.7608 9.76261 20.5768L8.185 18.646C8.056 18.49 8.164 18.253 8.362 18.253H9.889C9.955 18.253 10.024 18.286 10.066 18.34L10.6989 19.1143C10.8989 19.3591 11.2731 19.3591 11.4731 19.1143L12.106 18.34C12.151 18.283 12.214 18.253 12.283 18.253H13.807C14.005 18.253 14.113 18.49 13.984 18.646L12.4042 20.5737C12.2534 20.7577 12.2532 21.0225 12.4036 21.2068L14.026 23.194C14.152 23.353 14.044 23.59 13.846 23.59ZM14.08 12.13C14.08 12.196 14.038 12.25 13.984 12.25H12.42C12.1439 12.25 11.92 12.4739 11.92 12.75V14.311C11.92 14.368 11.866 14.41 11.8 14.41H10.36C10.294 14.41 10.24 14.368 10.24 14.314V12.75C10.24 12.4739 10.0161 12.25 9.74 12.25H8.176C8.122 12.25 8.08 12.196 8.08 12.13V10.69C8.08 10.624 8.122 10.57 8.176 10.57H9.74C10.0161 10.57 10.24 10.3461 10.24 10.07V8.506C10.24 8.452 10.294 8.41 10.36 8.41H11.8C11.866 8.41 11.92 8.452 11.92 8.506V10.07C11.92 10.3461 12.1439 10.57 12.42 10.57H13.981C14.038 10.57 14.08 10.624 14.08 10.69V12.13ZM23.92 23.2C23.92 23.266 23.878 23.32 23.824 23.32H18.016C17.962 23.32 17.92 23.266 17.92 23.2V21.76C17.92 21.694 17.962 21.64 18.016 21.64H23.821C23.878 21.64 23.92 21.694 23.92 21.76V23.2ZM23.92 20.08C23.92 20.146 23.878 20.2 23.824 20.2H18.016C17.962 20.2 17.92 20.146 17.92 20.08V18.64C17.92 18.574 17.962 18.52 18.016 18.52H23.821C23.878 18.52 23.92 18.574 23.92 18.64V20.08ZM23.92 12.13C23.92 12.196 23.878 12.25 23.824 12.25H18.016C17.962 12.25 17.92 12.196 17.92 12.13V10.69C17.92 10.624 17.962 10.57 18.016 10.57H23.821C23.878 10.57 23.92 10.624 23.92 10.69V12.13Z" fill="url(#paint0_linear_4328_1834)"/>
<defs>
<linearGradient id="paint0_linear_4328_1834" x1="16.1187" y1="-8.36588" x2="14.272" y2="60.3244" gradientUnits="userSpaceOnUse">
<stop stop-color="#23E5C5"/>
<stop offset="1" stop-color="#259885"/>
</linearGradient>
</defs>
</svg>
