<svg width="32" height="32" viewBox="0 0 32 32" fill="none" xmlns="http://www.w3.org/2000/svg">
<path opacity="0.4" fill-rule="evenodd" clip-rule="evenodd" d="M3.55566 8.5C3.55566 8.22386 3.77952 8 4.05566 8H21.8211C22.0972 8 22.3211 8.22386 22.3211 8.5V11.9753C22.3211 12.3452 22.7088 12.5871 23.041 12.4244L27.7246 10.1304C28.0568 9.96765 28.4446 10.2095 28.4446 10.5794V23.1983C28.4446 23.5682 28.0568 23.81 27.7246 23.6473L23.041 21.3533C22.7088 21.1906 22.3211 21.4325 22.3211 21.8024V25.2778C22.3211 25.5539 22.0972 25.7778 21.8211 25.7778H4.05566C3.77952 25.7778 3.55566 25.5539 3.55566 25.2778V8.5ZM16.139 17.3219C16.4723 17.1294 16.4723 16.6483 16.139 16.4558L10.9723 13.4729C10.639 13.2804 10.2223 13.521 10.2223 13.9059L10.2223 19.8718C10.2223 20.2567 10.639 20.4973 10.9723 20.3048L16.139 17.3219Z" fill="black"/>
<path fill-rule="evenodd" clip-rule="evenodd" d="M3.55566 7.61108C3.55566 7.33494 3.77952 7.11108 4.05566 7.11108H21.8211C22.0972 7.11108 22.3211 7.33494 22.3211 7.61108V11.0863C22.3211 11.4562 22.7088 11.6981 23.041 11.5354L27.7246 9.24136C28.0568 9.07865 28.4446 9.32049 28.4446 9.69039V22.3093C28.4446 22.6792 28.0568 22.921 27.7246 22.7583L23.041 20.4643C22.7088 20.3016 22.3211 20.5435 22.3211 20.9134V24.3889C22.3211 24.665 22.0972 24.8889 21.8211 24.8889H4.05566C3.77952 24.8889 3.55566 24.665 3.55566 24.3889V7.61108ZM16.139 16.4329C16.4723 16.2404 16.4723 15.7593 16.139 15.5668L10.9723 12.5839C10.639 12.3914 10.2223 12.632 10.2223 13.0169L10.2223 18.9828C10.2223 19.3677 10.639 19.6083 10.9723 19.4158L16.139 16.4329Z" fill="url(#paint0_linear_4328_5851)"/>
<defs>
<linearGradient id="paint0_linear_4328_5851" x1="16.1232" y1="-2.04882" x2="15.1458" y2="48.8509" gradientUnits="userSpaceOnUse">
<stop stop-color="#23E5C5"/>
<stop offset="1" stop-color="#259885"/>
</linearGradient>
</defs>
</svg>
