<svg width="32" height="32" viewBox="0 0 32 32" fill="none" xmlns="http://www.w3.org/2000/svg">
<path opacity="0.4" fill-rule="evenodd" clip-rule="evenodd" d="M3.55469 8.49976C3.55469 8.22361 3.77855 7.99976 4.05469 7.99976H21.8201C22.0963 7.99976 22.3201 8.22361 22.3201 8.49976V11.9749C22.3201 12.3448 22.7079 12.5867 23.0401 12.424L27.7242 10.1297C28.0564 9.96698 28.4441 10.2088 28.4441 10.5787V23.1976C28.4441 23.5675 28.0564 23.8094 27.7242 23.6467L23.0401 21.3524C22.7079 21.1897 22.3201 21.4315 22.3201 21.8014V25.2775C22.3201 25.5537 22.0963 25.7775 21.8201 25.7775H4.05469C3.77854 25.7775 3.55469 25.5537 3.55469 25.2775V8.49976ZM16.1406 17.3215C16.474 17.1291 16.474 16.648 16.1406 16.4555L10.974 13.4725C10.6406 13.2801 10.224 13.5207 10.224 13.9056L10.224 19.8715C10.224 20.2564 10.6406 20.497 10.974 20.3045L16.1406 17.3215Z" fill="black"/>
<path fill-rule="evenodd" clip-rule="evenodd" d="M3.55469 7.61133C3.55469 7.33519 3.77855 7.11133 4.05469 7.11133H21.8201C22.0963 7.11133 22.3201 7.33519 22.3201 7.61133V11.0864C22.3201 11.4563 22.7079 11.6982 23.0401 11.5355L27.7242 9.24117C28.0564 9.07846 28.4441 9.3203 28.4441 9.6902V22.3091C28.4441 22.679 28.0564 22.9209 27.7242 22.7582L23.0401 20.4639C22.7079 20.3012 22.3201 20.543 22.3201 20.9129V24.3891C22.3201 24.6653 22.0963 24.8891 21.8201 24.8891H4.05469C3.77854 24.8891 3.55469 24.6653 3.55469 24.3891V7.61133ZM16.1406 16.4331C16.474 16.2407 16.474 15.7595 16.1406 15.5671L10.974 12.5841C10.6406 12.3917 10.224 12.6322 10.224 13.0171L10.224 18.9831C10.224 19.368 10.6406 19.6085 10.974 19.4161L16.1406 16.4331Z" fill="url(#paint0_linear_2446_367882)"/>
<defs>
<linearGradient id="paint0_linear_2446_367882" x1="16.1225" y1="-2.4078" x2="15.067" y2="50.4865" gradientUnits="userSpaceOnUse">
<stop stop-color="white"/>
<stop offset="1" stop-color="#C4C4C4" stop-opacity="0"/>
</linearGradient>
</defs>
</svg>
