<svg width="32" height="32" viewBox="0 0 32 32" fill="none" xmlns="http://www.w3.org/2000/svg">
<path opacity="0.4" fill-rule="evenodd" clip-rule="evenodd" d="M16.9938 29.637C16.9938 30.0881 17.5441 30.3086 17.8555 29.9822L29.1742 18.1227C29.3586 17.9295 29.3586 17.6255 29.1742 17.4323L17.8555 5.57279C17.5441 5.24646 16.9938 5.4669 16.9938 5.918V13.1593C16.9938 13.4341 16.7728 13.6566 16.4981 13.663C12.2006 13.7625 6.46033 14.9611 2.74478 28.1163C2.6035 28.6165 3.23849 28.9691 3.60588 28.6014C9.2428 22.96 13.0639 23.0325 16.8618 23.1045V23.1045C16.9351 23.1059 16.9938 23.1657 16.9938 23.2391V29.637Z" fill="black"/>
<path fill-rule="evenodd" clip-rule="evenodd" d="M16.9938 28.7481C16.9938 29.1992 17.5441 29.4196 17.8555 29.0933L29.1742 17.2338C29.3586 17.0406 29.3586 16.7366 29.1742 16.5434L17.8555 4.68387C17.5441 4.35754 16.9938 4.57798 16.9938 5.02908V12.2704C16.9938 12.5451 16.7728 12.7677 16.4981 12.7741C12.2006 12.8736 6.46033 14.0722 2.74478 27.2274C2.6035 27.7276 3.23849 28.0801 3.60588 27.7125C9.2428 22.0711 13.0639 22.1436 16.8618 22.2156V22.2156C16.9351 22.217 16.9938 22.2768 16.9938 22.3501V28.7481Z" fill="url(#paint0_linear_4328_5689)"/>
<defs>
<linearGradient id="paint0_linear_4328_5689" x1="15.8871" y1="-8.20931" x2="17.6558" y2="62.5516" gradientUnits="userSpaceOnUse">
<stop stop-color="#23E5C5"/>
<stop offset="1" stop-color="#259885"/>
</linearGradient>
</defs>
</svg>
