<svg width="32" height="32" viewBox="0 0 32 32" fill="none" xmlns="http://www.w3.org/2000/svg">
<path opacity="0.4" fill-rule="evenodd" clip-rule="evenodd" d="M16.2992 3.69581C16.1463 3.60921 15.9592 3.60921 15.8063 3.69581L4.69888 9.98761C4.54217 10.0764 4.44531 10.2426 4.44531 10.4227V23.0423C4.44531 23.2224 4.54217 23.3886 4.69888 23.4774L15.8063 29.7692C15.9592 29.8558 16.1463 29.8558 16.2992 29.7692L27.4066 23.4774C27.5633 23.3886 27.6601 23.2224 27.6601 23.0423V10.4227C27.6601 10.2426 27.5633 10.0764 27.4066 9.98761L16.2992 3.69581ZM8.3878 14.3114C8.05454 14.1266 7.64531 14.3676 7.64531 14.7487V21.1772C7.64531 21.3573 7.74217 21.5235 7.89888 21.6123L13.7067 24.9021C14.04 25.0909 14.4531 24.8502 14.4531 24.4671V17.9694C14.4531 17.7877 14.3545 17.6203 14.1956 17.5321L8.3878 14.3114ZM17.6531 24.4666C17.6531 24.8497 18.0662 25.0905 18.3996 24.9017L24.2066 21.6123C24.3633 21.5235 24.4601 21.3573 24.4601 21.1772V14.7489C24.4601 14.3678 24.0509 14.1268 23.7176 14.3116L17.9106 17.5319C17.7517 17.62 17.6531 17.7874 17.6531 17.9691V24.4666ZM22.1139 11.5418C22.4555 11.3524 22.4577 10.862 22.1178 10.6695L16.2992 7.37353C16.1463 7.28693 15.9592 7.28693 15.8063 7.37353L9.98774 10.6695C9.64789 10.862 9.65011 11.3523 9.99169 11.5418L15.8104 14.7685C15.9612 14.8522 16.1445 14.8522 16.2953 14.7685L22.1139 11.5418Z" fill="black"/>
<path fill-rule="evenodd" clip-rule="evenodd" d="M16.2992 2.80592C16.1463 2.71932 15.9592 2.71932 15.8063 2.80592L4.69888 9.09775C4.54217 9.18652 4.44531 9.3527 4.44531 9.5328V22.1525C4.44531 22.3326 4.54217 22.4988 4.69888 22.5876L15.8063 28.8794C15.9592 28.966 16.1463 28.966 16.2992 28.8794L27.4066 22.5876C27.5633 22.4988 27.6601 22.3326 27.6601 22.1525V9.5328C27.6601 9.3527 27.5633 9.18652 27.4066 9.09775L16.2992 2.80592ZM7.64531 13.0098V20.5789L14.4531 24.4352V16.7851L7.64531 13.0098ZM17.6531 24.4347L24.4601 20.5789V13.0099L17.6531 16.7848V24.4347ZM22.894 10.2193L16.0527 6.34406L9.21162 10.2192L16.0529 14.0131L22.894 10.2193Z" fill="url(#paint0_linear_2446_367918)"/>
<defs>
<linearGradient id="paint0_linear_2446_367918" x1="19.6907" y1="-0.998086" x2="16.6497" y2="47.2202" gradientUnits="userSpaceOnUse">
<stop stop-color="white"/>
<stop offset="1" stop-color="#C4C4C4" stop-opacity="0"/>
</linearGradient>
</defs>
</svg>
