<svg width="32" height="32" viewBox="0 0 32 32" fill="none" xmlns="http://www.w3.org/2000/svg">
<path opacity="0.4" fill-rule="evenodd" clip-rule="evenodd" d="M9.05566 4.44434C9.33181 4.44434 9.55566 4.66819 9.55566 4.94434L9.55566 22.8332C9.55566 23.1094 9.77952 23.3332 10.0557 23.3332H27.9446C28.2207 23.3332 28.4446 23.5571 28.4446 23.8332V25.4999C28.4446 25.776 28.2207 25.9999 27.9446 25.9999H25.6112C25.3351 25.9999 25.1112 26.2237 25.1112 26.4999V28.8332C25.1112 29.1094 24.8874 29.3332 24.6112 29.3332H22.9446C22.6684 29.3332 22.4446 29.1094 22.4446 28.8332V26.4999C22.4446 26.2237 22.2207 25.9999 21.9446 25.9999H7.389C7.11286 25.9999 6.889 25.776 6.889 25.4999V10.9443C6.889 10.6682 6.66514 10.4443 6.389 10.4443H4.05566C3.77952 10.4443 3.55566 10.2205 3.55566 9.94434V8.27767C3.55566 8.00153 3.77952 7.77767 4.05566 7.77767H6.389C6.66514 7.77767 6.889 7.55381 6.889 7.27767L6.889 4.94434C6.889 4.66819 7.11286 4.44434 7.389 4.44434H9.05566ZM22.4446 10.9443C22.4446 10.6682 22.2207 10.4443 21.9446 10.4443H11.8334C11.5573 10.4443 11.3334 10.2205 11.3334 9.94434V8.27767C11.3334 8.00153 11.5573 7.77767 11.8334 7.77767H24.6112C24.8874 7.77767 25.1112 8.00153 25.1112 8.27767V21.0554C25.1112 21.3316 24.8874 21.5554 24.6112 21.5554H22.9446C22.6684 21.5554 22.4446 21.3316 22.4446 21.0554V10.9443Z" fill="black"/>
<path fill-rule="evenodd" clip-rule="evenodd" d="M9.05566 3.55566C9.33181 3.55566 9.55566 3.77952 9.55566 4.05566L9.55566 21.9446C9.55566 22.2207 9.77952 22.4446 10.0557 22.4446H27.9446C28.2207 22.4446 28.4446 22.6684 28.4446 22.9446V24.6112C28.4446 24.8874 28.2207 25.1112 27.9446 25.1112H25.6112C25.3351 25.1112 25.1112 25.3351 25.1112 25.6112V27.9446C25.1112 28.2207 24.8874 28.4446 24.6112 28.4446H22.9446C22.6684 28.4446 22.4446 28.2207 22.4446 27.9446V25.6112C22.4446 25.3351 22.2207 25.1112 21.9446 25.1112H7.389C7.11286 25.1112 6.889 24.8874 6.889 24.6112V10.0557C6.889 9.77952 6.66514 9.55566 6.389 9.55566H4.05566C3.77952 9.55566 3.55566 9.33181 3.55566 9.05566V7.389C3.55566 7.11285 3.77952 6.889 4.05566 6.889H6.389C6.66514 6.889 6.889 6.66514 6.889 6.389L6.889 4.05566C6.889 3.77952 7.11286 3.55566 7.389 3.55566H9.05566ZM22.4446 10.0557C22.4446 9.77952 22.2207 9.55566 21.9446 9.55566H11.8334C11.5573 9.55566 11.3334 9.33181 11.3334 9.05566V7.389C11.3334 7.11285 11.5573 6.889 11.8334 6.889H24.6112C24.8874 6.889 25.1112 7.11285 25.1112 7.389V20.1668C25.1112 20.4429 24.8874 20.6668 24.6112 20.6668H22.9446C22.6684 20.6668 22.4446 20.4429 22.4446 20.1668V10.0557Z" fill="url(#paint0_linear_4328_3102)"/>
<defs>
<linearGradient id="paint0_linear_4328_3102" x1="16.1232" y1="-9.26821" x2="14.2082" y2="61.9662" gradientUnits="userSpaceOnUse">
<stop stop-color="#23E5C5"/>
<stop offset="1" stop-color="#259885"/>
</linearGradient>
</defs>
</svg>
