<svg width="32" height="32" viewBox="0 0 32 32" fill="none" xmlns="http://www.w3.org/2000/svg">
<path opacity="0.4" fill-rule="evenodd" clip-rule="evenodd" d="M16.9938 29.637C16.9938 30.0881 17.5441 30.3086 17.8555 29.9822L29.1742 18.1227C29.3586 17.9295 29.3586 17.6255 29.1742 17.4323L17.8555 5.57279C17.5441 5.24646 16.9938 5.4669 16.9938 5.918V13.1599C16.9938 13.4347 16.7728 13.6572 16.4981 13.6636C12.2005 13.7629 6.45978 14.9609 2.744 28.1169C2.60272 28.6172 3.23771 28.9697 3.6051 28.602C9.24202 22.9606 13.0631 23.0331 16.861 23.1052C16.9348 23.1066 16.9938 23.1667 16.9938 23.2405V29.637Z" fill="black"/>
<path fill-rule="evenodd" clip-rule="evenodd" d="M16.9938 28.7483C16.9938 29.1994 17.5441 29.4199 17.8555 29.0936L29.1742 17.234C29.3586 17.0408 29.3586 16.7368 29.1742 16.5436L17.8555 4.68412C17.5441 4.35779 16.9938 4.57823 16.9938 5.02933V12.2713C16.9938 12.546 16.7728 12.7686 16.4981 12.7749C12.2005 12.8743 6.45978 14.0723 2.744 27.2283C2.60272 27.7285 3.23771 28.081 3.6051 27.7133C9.24202 22.072 13.0631 22.1445 16.861 22.2165C16.9348 22.2179 16.9938 22.2781 16.9938 22.3518V28.7483Z" fill="url(#paint0_linear_2446_367910)"/>
<defs>
<linearGradient id="paint0_linear_2446_367910" x1="15.8867" y1="-8.70857" x2="17.7967" y2="64.8236" gradientUnits="userSpaceOnUse">
<stop stop-color="white"/>
<stop offset="1" stop-color="#C4C4C4" stop-opacity="0"/>
</linearGradient>
</defs>
</svg>
