<svg width="32" height="32" viewBox="0 0 32 32" fill="none" xmlns="http://www.w3.org/2000/svg">
<path opacity="0.4" fill-rule="evenodd" clip-rule="evenodd" d="M5.77604 16.8889C5.77604 11.2433 10.3527 6.66667 15.9983 6.66667C21.6438 6.66667 26.2205 11.2433 26.2205 16.8889C26.2205 22.5345 21.6438 27.1111 15.9983 27.1111C10.3527 27.1111 5.77604 22.5345 5.77604 16.8889ZM15.9983 4C8.87993 4 3.10938 9.77055 3.10938 16.8889C3.10938 24.0072 8.87993 29.7778 15.9983 29.7778C23.1166 29.7778 28.8872 24.0072 28.8872 16.8889C28.8872 9.77055 23.1166 4 15.9983 4ZM16.4997 8.90425C16.2241 8.887 16 9.11249 16 9.38863V16.8886V24.3886C16 24.6648 16.2241 24.8903 16.4997 24.873C17.3793 24.818 18.2451 24.6178 19.0615 24.2797C20.0321 23.8776 20.914 23.2884 21.6569 22.5455C22.3997 21.8026 22.989 20.9207 23.391 19.9501C23.7931 18.9795 24 17.9392 24 16.8886C24 15.8381 23.7931 14.7978 23.391 13.8272C22.989 12.8566 22.3997 11.9746 21.6569 11.2318C20.914 10.4889 20.0321 9.89963 19.0615 9.49759C18.2451 9.15942 17.3793 8.9593 16.4997 8.90425Z" fill="black"/>
<path fill-rule="evenodd" clip-rule="evenodd" d="M5.77604 17.0002C5.77604 11.3546 10.3527 6.778 15.9983 6.778C21.6438 6.778 26.2205 11.3546 26.2205 17.0002C26.2205 22.6458 21.6438 27.2224 15.9983 27.2224C10.3527 27.2224 5.77604 22.6458 5.77604 17.0002ZM15.9983 4.11133C8.87993 4.11133 3.10938 9.88188 3.10938 17.0002C3.10938 24.1186 8.87993 29.8891 15.9983 29.8891C23.1166 29.8891 28.8872 24.1186 28.8872 17.0002C28.8872 9.88188 23.1166 4.11133 15.9983 4.11133ZM16.4997 9.01558C16.2241 8.99833 16 9.22381 16 9.49996V16.9999V24.4999C16 24.7761 16.2241 25.0016 16.4997 24.9843C17.3793 24.9293 18.2451 24.7291 19.0615 24.391C20.0321 23.9889 20.914 23.3997 21.6569 22.6568C22.3997 21.9139 22.989 21.032 23.391 20.0614C23.7931 19.0908 24 18.0505 24 16.9999C24 15.9494 23.7931 14.9091 23.391 13.9385C22.989 12.9679 22.3997 12.086 21.6569 11.3431C20.914 10.6002 20.0321 10.011 19.0615 9.60892C18.2451 9.27075 17.3793 9.07063 16.4997 9.01558Z" fill="url(#paint0_linear_4328_3152)"/>
<defs>
<linearGradient id="paint0_linear_4328_3152" x1="16.1257" y1="-9.17054" x2="14.1423" y2="64.6079" gradientUnits="userSpaceOnUse">
<stop stop-color="#23E5C5"/>
<stop offset="1" stop-color="#259885"/>
</linearGradient>
</defs>
</svg>
