<svg width="32" height="32" viewBox="0 0 32 32" fill="none" xmlns="http://www.w3.org/2000/svg">
<path opacity="0.4" fill-rule="evenodd" clip-rule="evenodd" d="M11.5071 11.1059C11.6806 10.8911 11.9954 10.8576 12.2102 11.0311L12.9841 11.6562C13.1989 11.8297 13.2324 12.1445 13.0589 12.3593L11.1797 14.6859C11.0062 14.9007 11.0397 15.2155 11.2545 15.389L12.0289 16.0145C12.2437 16.188 12.5585 16.1545 12.732 15.9397L14.6112 13.6131C14.7847 13.3983 15.0995 13.3648 15.3143 13.5383L16.0885 14.1636C16.3034 14.3371 16.3369 14.6519 16.1633 14.8668L15.5376 15.6415C15.3641 15.8563 15.3976 16.1711 15.6124 16.3446L16.3868 16.97C16.6016 17.1436 16.9164 17.1101 17.0899 16.8952L17.7156 16.1205C17.8891 15.9057 18.2039 15.8722 18.4188 16.0457L19.1952 16.6728C19.41 16.8463 19.4435 17.1612 19.27 17.376L17.3907 19.7027C17.2172 19.9175 17.2507 20.2323 17.4655 20.4058L18.2399 21.0313C18.4547 21.2048 18.7695 21.1713 18.943 20.9565L20.8223 18.6297C20.9958 18.4149 21.3106 18.3814 21.5254 18.5549L22.2985 19.1793C22.5133 19.3528 22.5468 19.6676 22.3733 19.8824L21.7475 20.6572C21.574 20.872 21.6075 21.1868 21.8223 21.3603L22.5967 21.9857C22.8115 22.1593 23.1263 22.1258 23.2998 21.9109L23.9255 21.1362C24.099 20.9214 24.4139 20.8879 24.6287 21.0614L26.1785 22.3132C26.3933 22.4867 26.4268 22.8015 26.2533 23.0163L23.7472 26.1191C23.5737 26.3339 23.2589 26.3674 23.0441 26.1939L5.19466 11.7771C4.97984 11.6036 4.94635 11.2888 5.11986 11.0739L7.62592 7.97118C7.79943 7.75635 8.11424 7.72286 8.32906 7.89637L9.88 9.14905C10.0948 9.32256 10.1283 9.63736 9.9548 9.85219L9.3291 10.6269C9.15559 10.8417 9.18908 11.1565 9.4039 11.33L10.1782 11.9554C10.3931 12.1289 10.7079 12.0955 10.8814 11.8806L11.5071 11.1059ZM28.9845 22.0147L15.7958 11.3623L15.7902 11.3576L15.0158 10.7322L15.0101 10.7276L8.03054 5.09033C7.81572 4.91682 7.50091 4.95031 7.3274 5.16513L2.31382 11.3724C2.14031 11.5873 2.1738 11.9021 2.38862 12.0756L23.3426 28.9999C23.5574 29.1734 23.8722 29.1399 24.0458 28.9251L29.0593 22.7178C29.2329 22.503 29.1994 22.1882 28.9845 22.0147Z" fill="black"/>
<path fill-rule="evenodd" clip-rule="evenodd" d="M12.1334 10.3299C12.3069 10.1151 12.6217 10.0816 12.8365 10.2551L13.6104 10.8802C13.8252 11.0537 13.8587 11.3685 13.6852 11.5833L11.8063 13.9095C11.6328 14.1244 11.6663 14.4392 11.8812 14.6127L12.6555 15.2381C12.8703 15.4116 13.1851 15.3781 13.3586 15.1633L15.2375 12.8371C15.411 12.6223 15.7258 12.5888 15.9406 12.7623L16.7149 13.3876C16.9297 13.5611 16.9632 13.8759 16.7897 14.0908L16.1642 14.8651C15.9907 15.0799 16.0242 15.3947 16.239 15.5682L17.0134 16.1937C17.2282 16.3672 17.543 16.3337 17.7165 16.1189L18.3419 15.3445C18.5155 15.1297 18.8303 15.0962 19.0451 15.2697L19.8215 15.8968C20.0363 16.0703 20.0698 16.3851 19.8963 16.6L18.0173 18.9263C17.8438 19.1412 17.8773 19.456 18.0921 19.6295L18.8665 20.2549C19.0813 20.4284 19.3961 20.3949 19.5696 20.1801L21.4486 17.8537C21.6221 17.6389 21.9369 17.6054 22.1517 17.7789L22.9248 18.4033C23.1396 18.5768 23.1731 18.8916 22.9996 19.1064L22.3741 19.8808C22.2006 20.0956 22.2341 20.4104 22.4489 20.5839L23.2233 21.2094C23.4381 21.3829 23.7529 21.3494 23.9264 21.1346L24.5519 20.3602C24.7254 20.1454 25.0402 20.1119 25.255 20.2854L26.8051 21.5374C27.02 21.711 27.0535 22.0258 26.8799 22.2406L24.3739 25.3433C24.2004 25.5582 23.8856 25.5917 23.6707 25.4182L5.82129 11.0013C5.60647 10.8278 5.57298 10.513 5.74649 10.2982L8.25257 7.19544C8.42608 6.98061 8.74088 6.94712 8.9557 7.12063L10.5063 8.37304C10.7211 8.54656 10.7546 8.86136 10.5811 9.07618L9.95572 9.85048C9.78221 10.0653 9.8157 10.3801 10.0305 10.5536L10.8049 11.179C11.0197 11.3526 11.3345 11.3191 11.508 11.1042L12.1334 10.3299ZM22.6422 15.6101L29.6112 21.2389C29.826 21.4124 29.8595 21.7272 29.686 21.9421L24.6724 28.1494C24.4989 28.3642 24.1841 28.3977 23.9692 28.2242L3.01525 11.2999C2.80042 11.1264 2.76693 10.8116 2.94044 10.5967L7.95405 4.38939C8.12756 4.17457 8.44237 4.14108 8.65719 4.31459L12.5328 7.4449L12.538 7.44906L13.3124 8.07449L13.3176 8.07872L15.6239 9.94153C15.6302 9.94613 15.6363 9.95089 15.6424 9.95582L16.4168 10.5812C16.4229 10.5862 16.4288 10.5912 16.4347 10.5964L18.7445 12.462L18.7466 12.4637L19.5209 13.0891L19.523 13.0908L21.8386 14.9611C21.8436 14.9648 21.8485 14.9687 21.8534 14.9726L22.6278 15.598C22.6327 15.602 22.6375 15.606 22.6422 15.6101Z" fill="url(#paint0_linear_2446_367952)"/>
<defs>
<linearGradient id="paint0_linear_2446_367952" x1="22.2631" y1="9.12262" x2="5.28362" y2="29.763" gradientUnits="userSpaceOnUse">
<stop stop-color="white"/>
<stop offset="1" stop-color="#C4C4C4" stop-opacity="0"/>
</linearGradient>
</defs>
</svg>
