<svg width="32" height="32" viewBox="0 0 32 32" fill="none" xmlns="http://www.w3.org/2000/svg">
<path opacity="0.4" fill-rule="evenodd" clip-rule="evenodd" d="M14.9011 27.9331C14.9011 28.3806 14.3583 28.6027 14.0445 28.2836L3.01161 17.061C2.82035 16.8664 2.82035 16.5545 3.01161 16.3599L14.0445 5.13729C14.3583 4.81817 14.9011 5.04031 14.9011 5.48782V12.3012C14.9011 12.576 15.1221 12.7986 15.3968 12.8049C19.5913 12.9009 25.1866 14.0444 28.8175 26.4644C28.9627 26.9613 28.3355 27.3186 27.9638 26.9583C22.4674 21.6315 18.7373 21.7002 15.0298 21.7685C14.9583 21.7698 14.9011 21.8281 14.9011 21.8996V27.9331Z" fill="black"/>
<path fill-rule="evenodd" clip-rule="evenodd" d="M14.9001 26.2226C14.9001 26.6702 14.3573 26.8923 14.0436 26.5732L3.01063 15.3505C2.81937 15.156 2.81937 14.844 3.01063 14.6495L14.0436 3.42684C14.3573 3.10772 14.9001 3.32986 14.9001 3.77737V10.5908C14.9001 10.8655 15.1211 11.0881 15.3958 11.0944C19.5903 11.1905 25.1856 12.334 28.8165 24.754C28.9618 25.2509 28.3345 25.6082 27.9628 25.2479C22.4664 19.9211 18.7363 19.9898 15.0288 20.058C14.9574 20.0593 14.9001 20.1177 14.9001 20.1891V26.2226Z" fill="url(#paint0_linear_4328_1333)"/>
<defs>
<linearGradient id="paint0_linear_4328_1333" x1="15.981" y1="-8.80472" x2="14.352" y2="58.3126" gradientUnits="userSpaceOnUse">
<stop stop-color="#23E5C5"/>
<stop offset="1" stop-color="#259885"/>
</linearGradient>
</defs>
</svg>
