<svg width="32" height="32" viewBox="0 0 32 32" fill="none" xmlns="http://www.w3.org/2000/svg">
<path fill-rule="evenodd" clip-rule="evenodd" d="M3.14183 26.2062C2.83885 26.5327 3.05343 27.091 3.48192 27.091L27.3282 27.091C27.5938 27.091 27.8091 26.859 27.8091 26.5727V24.7301C27.8091 24.4439 27.5938 24.2118 27.3282 24.2118H18.4847C18.4861 24.1422 18.4869 24.0725 18.4869 24.0026C18.4869 21.1956 17.3033 18.6872 15.445 17.0187L25.4948 6.18776C25.6826 5.98533 25.6826 5.65714 25.4948 5.45471L24.2859 4.15182C24.0981 3.94939 23.7935 3.94939 23.6057 4.15182L3.14183 26.2062ZM13.5455 19.0658L9.59167 23.3269C9.28868 23.6535 9.50327 24.2118 9.93176 24.2118H15.8067C15.8089 24.1424 15.8099 24.0727 15.8099 24.0026C15.8099 21.9938 14.9238 20.2052 13.5455 19.0658Z" fill="black"/>
<path fill-rule="evenodd" clip-rule="evenodd" d="M3.14183 26.2062C2.83885 26.5327 3.05343 27.091 3.48192 27.091L27.3282 27.091C27.5938 27.091 27.8091 26.859 27.8091 26.5727V24.7301C27.8091 24.4439 27.5938 24.2118 27.3282 24.2118H18.6938C18.579 24.2118 18.4869 24.1174 18.4869 24.0026C18.4869 21.3857 17.4581 19.0283 15.8131 17.369C15.6164 17.1707 15.6007 16.8509 15.7907 16.6461L25.4948 6.18776C25.6826 5.98533 25.6826 5.65714 25.4948 5.45471L24.2859 4.15182C24.0981 3.94939 23.7935 3.94939 23.6057 4.15182L3.14183 26.2062ZM13.8971 19.3808C13.7069 19.1962 13.4046 19.2176 13.2244 19.4119L9.59167 23.3269C9.28868 23.6535 9.50327 24.2118 9.93176 24.2118H15.5975C15.7141 24.2118 15.8099 24.1192 15.8099 24.0026C15.8099 22.1703 15.0726 20.5211 13.8971 19.3808Z" fill="url(#paint0_linear_2446_367971)"/>
<defs>
<linearGradient id="paint0_linear_2446_367971" x1="15.5272" y1="-8.36411" x2="14.896" y2="68.4991" gradientUnits="userSpaceOnUse">
<stop stop-color="white"/>
<stop offset="1" stop-color="#E3E3E3" stop-opacity="0"/>
</linearGradient>
</defs>
</svg>
