<svg width="25" height="25" viewBox="0 0 25 25" fill="none" xmlns="http://www.w3.org/2000/svg">
<path fill-rule="evenodd" clip-rule="evenodd" d="M0.141834 22.2062C-0.161153 22.5327 0.0534336 23.091 0.481923 23.091L24.3282 23.091C24.5938 23.091 24.8091 22.859 24.8091 22.5727V20.7301C24.8091 20.4439 24.5938 20.2118 24.3282 20.2118H15.6938C15.579 20.2118 15.4869 20.1174 15.4869 20.0026V20.0026C15.4869 17.3857 14.4581 15.0283 12.8131 13.369C12.6164 13.1707 12.6007 12.8509 12.7907 12.6461L22.4948 2.18776C22.6826 1.98533 22.6826 1.65714 22.4948 1.45471L21.2859 0.151818C21.0981 -0.0506063 20.7935 -0.050606 20.6057 0.151819L0.141834 22.2062ZM10.8971 15.3808C10.7069 15.1962 10.4046 15.2176 10.2244 15.4119L6.59167 19.3269C6.28868 19.6535 6.50327 20.2118 6.93176 20.2118H12.5975C12.7141 20.2118 12.8099 20.1192 12.8099 20.0026V20.0026C12.8099 18.1703 12.0726 16.5211 10.8971 15.3808Z" fill="url(#paint0_linear_4328_5761)"/>
<path fill-rule="evenodd" clip-rule="evenodd" d="M0.141834 23.2062C-0.161153 23.5327 0.0534336 24.091 0.481923 24.091L24.3282 24.091C24.5938 24.091 24.8091 23.859 24.8091 23.5727V21.7301C24.8091 21.4439 24.5938 21.2118 24.3282 21.2118H15.6938C15.579 21.2118 15.4869 21.1174 15.4869 21.0026V21.0026C15.4869 18.3857 14.4581 16.0283 12.8131 14.369C12.6164 14.1707 12.6007 13.8509 12.7907 13.6461L22.4948 3.18776C22.6826 2.98533 22.6826 2.65714 22.4948 2.45471L21.2859 1.15182C21.0981 0.949394 20.7935 0.949394 20.6057 1.15182L0.141834 23.2062ZM10.8971 16.3808C10.7069 16.1962 10.4046 16.2176 10.2244 16.4119L6.59167 20.3269C6.28868 20.6535 6.50327 21.2118 6.93176 21.2118H12.5975C12.7141 21.2118 12.8099 21.1192 12.8099 21.0026V21.0026C12.8099 19.1703 12.0726 17.5211 10.8971 16.3808Z" fill="#1E1E1E"/>
<path fill-rule="evenodd" clip-rule="evenodd" d="M0.141834 22.2062C-0.161153 22.5327 0.0534336 23.091 0.481923 23.091L24.3282 23.091C24.5938 23.091 24.8091 22.859 24.8091 22.5727V20.7301C24.8091 20.4439 24.5938 20.2118 24.3282 20.2118H15.6938C15.579 20.2118 15.4869 20.1174 15.4869 20.0026V20.0026C15.4869 17.3857 14.4581 15.0283 12.8131 13.369C12.6164 13.1707 12.6007 12.8509 12.7907 12.6461L22.4948 2.18776C22.6826 1.98533 22.6826 1.65714 22.4948 1.45471L21.2859 0.151818C21.0981 -0.0506063 20.7935 -0.050606 20.6057 0.151819L0.141834 22.2062ZM10.8971 15.3808C10.7069 15.1962 10.4046 15.2176 10.2244 15.4119L6.59167 19.3269C6.28868 19.6535 6.50327 20.2118 6.93176 20.2118H12.5975C12.7141 20.2118 12.8099 20.1192 12.8099 20.0026V20.0026C12.8099 18.1703 12.0726 16.5211 10.8971 15.3808Z" fill="url(#paint1_linear_4328_5761)"/>
<defs>
<linearGradient id="paint0_linear_4328_5761" x1="12.5272" y1="-11.8975" x2="10.8734" y2="54.1976" gradientUnits="userSpaceOnUse">
<stop stop-color="#23E5C5"/>
<stop offset="1" stop-color="#259885"/>
</linearGradient>
<linearGradient id="paint1_linear_4328_5761" x1="12.5272" y1="-11.8975" x2="10.8734" y2="54.1976" gradientUnits="userSpaceOnUse">
<stop stop-color="#23E5C5"/>
<stop offset="1" stop-color="#259885"/>
</linearGradient>
</defs>
</svg>
