<svg width="32" height="32" viewBox="0 0 32 32" fill="none" xmlns="http://www.w3.org/2000/svg">
<path opacity="0.4" fill-rule="evenodd" clip-rule="evenodd" d="M17.168 18.8887C16.8918 18.8887 16.668 18.6648 16.668 18.3887L16.668 6.49977C16.668 6.22362 16.8918 5.99977 17.168 5.99977L26.3902 5.99976C26.6663 5.99976 26.8902 6.22362 26.8902 6.49976L26.8902 18.3887C26.8902 18.6648 26.6663 18.8887 26.3902 18.8887L17.168 18.8887ZM18.8902 16.1664C18.8902 16.4426 19.114 16.6664 19.3902 16.6664L24.168 16.6664C24.4441 16.6664 24.668 16.4426 24.668 16.1664L24.668 8.72199C24.668 8.44585 24.4441 8.22199 24.168 8.22199L19.3902 8.22199C19.114 8.22199 18.8902 8.44585 18.8902 8.72199L18.8902 16.1664Z" fill="black"/>
<path opacity="0.4" fill-rule="evenodd" clip-rule="evenodd" d="M5.60938 15.7773C5.33323 15.7773 5.10937 16.0012 5.10937 16.2773L5.10937 27.2773C5.10937 27.5535 5.33323 27.7773 5.60937 27.7773L14.8316 27.7773C15.1077 27.7773 15.3316 27.5535 15.3316 27.2773L15.3316 16.2773C15.3316 16.0012 15.1077 15.7773 14.8316 15.7773L5.60938 15.7773ZM7.3316 18.4996C7.3316 18.2234 7.55546 17.9996 7.8316 17.9996L12.6094 17.9996C12.8855 17.9996 13.1094 18.2234 13.1094 18.4996L13.1094 25.0551C13.1094 25.3313 12.8855 25.5551 12.6094 25.5551L7.8316 25.5551C7.55545 25.5551 7.3316 25.3313 7.3316 25.0551L7.3316 18.4996Z" fill="black"/>
<path opacity="0.4" fill-rule="evenodd" clip-rule="evenodd" d="M17.168 27.7773C16.8918 27.7773 16.668 27.5535 16.668 27.2773L16.668 20.7218C16.668 20.4457 16.8918 20.2218 17.168 20.2218L26.3902 20.2218C26.6663 20.2218 26.8902 20.4457 26.8902 20.7218L26.8902 27.2773C26.8902 27.5535 26.6663 27.7773 26.3902 27.7773L17.168 27.7773ZM18.8902 25.0551C18.8902 25.3313 19.114 25.5551 19.3902 25.5551L24.168 25.5551C24.4441 25.5551 24.668 25.3313 24.668 25.0551L24.668 22.944C24.668 22.6679 24.4441 22.444 24.168 22.444L19.3902 22.444C19.114 22.444 18.8902 22.6679 18.8902 22.944L18.8902 25.0551Z" fill="black"/>
<path opacity="0.4" fill-rule="evenodd" clip-rule="evenodd" d="M5.61328 6C5.33714 6 5.11328 6.22386 5.11328 6.5V13.9444C5.11328 14.2206 5.33714 14.4444 5.61328 14.4444H14.8355C15.1116 14.4444 15.3355 14.2206 15.3355 13.9444L15.3355 6.5C15.3355 6.22386 15.1116 6 14.8355 6H5.61328Z" fill="black"/>
<path fill-rule="evenodd" clip-rule="evenodd" d="M17.168 18C16.8918 18 16.668 17.7761 16.668 17.5L16.668 5.61109C16.668 5.33495 16.8918 5.11109 17.168 5.11109L26.3902 5.11109C26.6663 5.11109 26.8902 5.33495 26.8902 5.61109L26.8902 17.5C26.8902 17.7761 26.6663 18 26.3902 18L17.168 18ZM18.8902 15.2778C18.8902 15.5539 19.114 15.7778 19.3902 15.7778L24.168 15.7778C24.4441 15.7778 24.668 15.5539 24.668 15.2778L24.668 7.83332C24.668 7.55718 24.4441 7.33332 24.168 7.33332L19.3902 7.33332C19.114 7.33332 18.8902 7.55718 18.8902 7.83332L18.8902 15.2778Z" fill="url(#paint0_linear_2446_367895)"/>
<path fill-rule="evenodd" clip-rule="evenodd" d="M5.60938 14.8887C5.33323 14.8887 5.10937 15.1125 5.10937 15.3887L5.10937 26.3887C5.10937 26.6648 5.33323 26.8887 5.60937 26.8887L14.8316 26.8887C15.1077 26.8887 15.3316 26.6648 15.3316 26.3887L15.3316 15.3887C15.3316 15.1125 15.1077 14.8887 14.8316 14.8887L5.60938 14.8887ZM7.3316 17.6109C7.3316 17.3348 7.55546 17.1109 7.8316 17.1109L12.6094 17.1109C12.8855 17.1109 13.1094 17.3348 13.1094 17.6109L13.1094 24.1664C13.1094 24.4426 12.8855 24.6664 12.6094 24.6664L7.8316 24.6664C7.55545 24.6664 7.3316 24.4426 7.3316 24.1664L7.3316 17.6109Z" fill="url(#paint1_linear_2446_367895)"/>
<path fill-rule="evenodd" clip-rule="evenodd" d="M17.168 26.8887C16.8918 26.8887 16.668 26.6648 16.668 26.3887L16.668 19.8331C16.668 19.557 16.8918 19.3331 17.168 19.3331L26.3902 19.3331C26.6663 19.3331 26.8902 19.557 26.8902 19.8331L26.8902 26.3887C26.8902 26.6648 26.6663 26.8887 26.3902 26.8887L17.168 26.8887ZM18.8902 24.1665C18.8902 24.4426 19.114 24.6665 19.3902 24.6665L24.168 24.6665C24.4441 24.6665 24.668 24.4426 24.668 24.1665L24.668 22.0554C24.668 21.7792 24.4441 21.5554 24.168 21.5554L19.3902 21.5554C19.114 21.5554 18.8902 21.7792 18.8902 22.0554L18.8902 24.1665Z" fill="url(#paint2_linear_2446_367895)"/>
<path fill-rule="evenodd" clip-rule="evenodd" d="M5.61328 5.11133C5.33714 5.11133 5.11328 5.33519 5.11328 5.61133V13.0558C5.11328 13.3319 5.33714 13.5558 5.61328 13.5558H14.8355C15.1116 13.5558 15.3355 13.3319 15.3355 13.0558L15.3355 5.61133C15.3355 5.33519 15.1116 5.11133 14.8355 5.11133H5.61328Z" fill="url(#paint3_linear_2446_367895)"/>
<defs>
<linearGradient id="paint0_linear_2446_367895" x1="11.1945" y1="11.4918" x2="41.6058" y2="12.1657" gradientUnits="userSpaceOnUse">
<stop stop-color="white"/>
<stop offset="1" stop-color="#C4C4C4" stop-opacity="0"/>
</linearGradient>
<linearGradient id="paint1_linear_2446_367895" x1="-0.36412" y1="20.948" x2="30.0449" y2="20.2243" gradientUnits="userSpaceOnUse">
<stop stop-color="white"/>
<stop offset="1" stop-color="#C4C4C4" stop-opacity="0"/>
</linearGradient>
<linearGradient id="paint2_linear_2446_367895" x1="11.1945" y1="23.0735" x2="41.5774" y2="24.222" gradientUnits="userSpaceOnUse">
<stop stop-color="white"/>
<stop offset="1" stop-color="#C4C4C4" stop-opacity="0"/>
</linearGradient>
<linearGradient id="paint3_linear_2446_367895" x1="10.2749" y1="0.589728" x2="9.69516" y2="25.7112" gradientUnits="userSpaceOnUse">
<stop stop-color="white"/>
<stop offset="1" stop-color="#C4C4C4" stop-opacity="0"/>
</linearGradient>
</defs>
</svg>
