<svg width="32" height="32" viewBox="0 0 32 32" fill="none" xmlns="http://www.w3.org/2000/svg">
<path opacity="0.4" fill-rule="evenodd" clip-rule="evenodd" d="M9.05469 4.44482C9.33083 4.44482 9.55469 4.66868 9.55469 4.94482L9.55469 22.8337C9.55469 23.1099 9.77854 23.3337 10.0547 23.3337H27.9436C28.2197 23.3337 28.4436 23.5576 28.4436 23.8337V25.5004C28.4436 25.7765 28.2197 26.0004 27.9436 26.0004H25.6102C25.3341 26.0004 25.1102 26.2242 25.1102 26.5004V28.8337C25.1102 29.1099 24.8864 29.3337 24.6102 29.3337H22.9436C22.6674 29.3337 22.4436 29.1099 22.4436 28.8337V26.5004C22.4436 26.2242 22.2197 26.0004 21.9436 26.0004H7.38802C7.11188 26.0004 6.88802 25.7765 6.88802 25.5004V10.9448C6.88802 10.6687 6.66416 10.4448 6.38802 10.4448H4.05469C3.77855 10.4448 3.55469 10.221 3.55469 9.94482V8.27816C3.55469 8.00201 3.77854 7.77816 4.05469 7.77816H6.38802C6.66416 7.77816 6.88802 7.5543 6.88802 7.27816V4.94482C6.88802 4.66868 7.11188 4.44482 7.38802 4.44482H9.05469ZM22.4436 10.9448C22.4436 10.6687 22.2197 10.4448 21.9436 10.4448H11.8325C11.5563 10.4448 11.3325 10.221 11.3325 9.94482V8.27816C11.3325 8.00201 11.5563 7.77816 11.8325 7.77816H24.6102C24.8864 7.77816 25.1102 8.00201 25.1102 8.27816V21.0559C25.1102 21.3321 24.8864 21.5559 24.6102 21.5559H22.9436C22.6674 21.5559 22.4436 21.3321 22.4436 21.0559V10.9448Z" fill="black"/>
<path fill-rule="evenodd" clip-rule="evenodd" d="M9.05469 3.55493C9.33083 3.55493 9.55469 3.77879 9.55469 4.05493L9.55469 21.9438C9.55469 22.22 9.77854 22.4438 10.0547 22.4438H27.9436C28.2197 22.4438 28.4436 22.6677 28.4436 22.9438V24.6105C28.4436 24.8866 28.2197 25.1105 27.9436 25.1105H25.6102C25.3341 25.1105 25.1102 25.3343 25.1102 25.6105V27.9438C25.1102 28.22 24.8864 28.4438 24.6102 28.4438H22.9436C22.6674 28.4438 22.4436 28.22 22.4436 27.9438V25.6105C22.4436 25.3343 22.2197 25.1105 21.9436 25.1105H7.38802C7.11188 25.1105 6.88802 24.8866 6.88802 24.6105V10.0549C6.88802 9.77879 6.66416 9.55493 6.38802 9.55493H4.05469C3.77855 9.55493 3.55469 9.33107 3.55469 9.05493V7.38826C3.55469 7.11212 3.77854 6.88826 4.05469 6.88826H6.38802C6.66416 6.88826 6.88802 6.66441 6.88802 6.38826L6.88802 4.05493C6.88802 3.77879 7.11188 3.55493 7.38802 3.55493H9.05469ZM22.4436 10.0549C22.4436 9.77879 22.2197 9.55493 21.9436 9.55493H11.8325C11.5563 9.55493 11.3325 9.33107 11.3325 9.05493V7.38826C11.3325 7.11212 11.5563 6.88826 11.8325 6.88826H24.6102C24.8864 6.88826 25.1102 7.11212 25.1102 7.38826V20.166C25.1102 20.4422 24.8864 20.666 24.6102 20.666H22.9436C22.6674 20.666 22.4436 20.4422 22.4436 20.166V10.0549Z" fill="url(#paint0_linear_2446_367878)"/>
<defs>
<linearGradient id="paint0_linear_2446_367878" x1="16.1222" y1="-9.77184" x2="14.0542" y2="64.2518" gradientUnits="userSpaceOnUse">
<stop stop-color="white"/>
<stop offset="1" stop-color="#C4C4C4" stop-opacity="0"/>
</linearGradient>
</defs>
</svg>
