<svg width="27" height="24" viewBox="0 0 27 24" fill="none" xmlns="http://www.w3.org/2000/svg">
<path fill-rule="evenodd" clip-rule="evenodd" d="M12.9001 23.2226C12.9001 23.6701 12.3573 23.8923 12.0436 23.5732L1.01063 12.3505C0.819372 12.156 0.819372 11.844 1.01063 11.6495L12.0436 0.426844C12.3573 0.107721 12.9001 0.329861 12.9001 0.777372V7.59006C12.9001 7.86483 13.1211 8.08741 13.3958 8.0937C17.5904 8.18974 23.1858 9.33308 26.8167 21.7533C26.962 22.2502 26.3348 22.6075 25.963 22.2472C20.4666 16.9204 16.7365 16.989 13.029 17.0573C12.9575 17.0586 12.9001 17.117 12.9001 17.1886V23.2226Z" fill="url(#paint0_linear_4328_1037)"/>
<defs>
<linearGradient id="paint0_linear_4328_1037" x1="13.9811" y1="-12.2785" x2="12.2219" y2="57.4676" gradientUnits="userSpaceOnUse">
<stop stop-color="white"/>
<stop offset="1" stop-color="#C4C4C4" stop-opacity="0"/>
</linearGradient>
</defs>
</svg>
