<svg width="32" height="32" viewBox="0 0 32 32" fill="none" xmlns="http://www.w3.org/2000/svg">
<path opacity="0.4" fill-rule="evenodd" clip-rule="evenodd" d="M4.5 5.77783C4.22386 5.77783 4 6.00169 4 6.27783V23.589C4 23.8651 4.22386 24.089 4.5 24.089H10.5042C10.6185 24.089 10.7293 24.1281 10.8182 24.1998L15.6861 28.1266C15.8693 28.2743 16.1307 28.2743 16.3139 28.1266L21.1818 24.1998C21.2707 24.1281 21.3815 24.089 21.4958 24.089H27.5C27.7761 24.089 28 23.8651 28 23.589V6.27783C28 6.00169 27.7761 5.77783 27.5 5.77783H4.5ZM17.7778 16.4995C17.7778 16.2234 17.5539 15.9995 17.2778 15.9995H8.5C8.22386 15.9995 8 16.2234 8 16.4995V18.1662C8 18.4424 8.22386 18.6662 8.5 18.6662H17.2778C17.5539 18.6662 17.7778 18.4424 17.7778 18.1662V16.4995ZM8 12.0552C8 11.779 8.22386 11.5552 8.5 11.5552H23.5C23.7761 11.5552 24 11.779 24 12.0552V13.7219C24 13.9981 23.7761 14.2219 23.5 14.2219H8.5C8.22386 14.2219 8 13.9981 8 13.7219V12.0552Z" fill="black"/>
<path fill-rule="evenodd" clip-rule="evenodd" d="M4.5 4.88916C4.22386 4.88916 4 5.11302 4 5.38916V22.7003C4 22.9764 4.22386 23.2003 4.5 23.2003H10.5042C10.6185 23.2003 10.7293 23.2394 10.8182 23.3111L15.6861 27.2379C15.8693 27.3857 16.1307 27.3857 16.3139 27.2379L21.1818 23.3111C21.2707 23.2394 21.3815 23.2003 21.4958 23.2003H27.5C27.7761 23.2003 28 22.9764 28 22.7003V5.38916C28 5.11302 27.7761 4.88916 27.5 4.88916H4.5ZM17.7778 15.6108C17.7778 15.3347 17.5539 15.1108 17.2778 15.1108H8.5C8.22386 15.1108 8 15.3347 8 15.6108V17.2775C8 17.5537 8.22386 17.7775 8.5 17.7775H17.2778C17.5539 17.7775 17.7778 17.5537 17.7778 17.2775V15.6108ZM8 11.1675C8 10.8913 8.22386 10.6675 8.5 10.6675H23.5C23.7761 10.6675 24 10.8913 24 11.1675V12.8341C24 13.1103 23.7761 13.3341 23.5 13.3341H8.5C8.22386 13.3341 8 13.1103 8 12.8341V11.1675Z" fill="url(#paint0_linear_4328_3411)"/>
<defs>
<linearGradient id="paint0_linear_4328_3411" x1="16.1187" y1="-6.68302" x2="14.5013" y2="57.6042" gradientUnits="userSpaceOnUse">
<stop stop-color="#23E5C5"/>
<stop offset="1" stop-color="#259885"/>
</linearGradient>
</defs>
</svg>
